<?xml version="1.0" standalone="no"?>
<!DOCTYPE svg PUBLIC "-//W3C//DTD SVG 20010904//EN"
 "http://www.w3.org/TR/2001/REC-SVG-20010904/DTD/svg10.dtd">
<svg version="1.0" xmlns="http://www.w3.org/2000/svg"
 width="1634.000000pt" height="221.000000pt" viewBox="0 0 1634.000000 221.000000"
 preserveAspectRatio="xMidYMid meet">

<g transform="translate(0.000000,221.000000) scale(0.100000,-0.100000)"
fill="#000000" stroke="none">
<path d="M1045 2156 c-410 -59 -753 -302 -915 -649 -72 -154 -85 -218 -84
-422 0 -166 2 -187 27 -268 124 -403 462 -695 905 -784 107 -21 353 -24 462
-4 380 68 696 295 855 616 84 168 99 235 100 440 0 202 -16 279 -95 440 -155
320 -463 547 -840 620 -116 22 -305 27 -415 11z m163 -250 l2 -219 -52 6 c-29
4 -71 7 -93 7 -68 0 -69 3 -35 136 33 129 100 280 128 287 47 13 47 15 50
-217z m141 180 c32 -53 69 -153 96 -261 14 -57 25 -105 25 -108 0 -6 -44 -13
-152 -22 l-68 -7 0 215 c0 117 2 216 5 218 2 3 20 3 40 1 26 -3 40 -12 54 -36z
m-279 15 c0 -5 -7 -28 -16 -52 -23 -66 -74 -273 -74 -303 0 -22 -5 -26 -28
-26 -26 0 -160 35 -169 44 -16 16 101 201 172 272 59 59 115 91 115 65z m433
-91 c69 -74 168 -243 149 -253 -19 -11 -143 -39 -148 -34 -3 3 -16 54 -29 114
-13 59 -33 137 -44 173 -11 36 -21 69 -21 73 0 16 39 -14 93 -73z m-729 7
c-33 -24 -86 -71 -119 -105 l-61 -62 -34 29 c-34 29 -35 30 -15 45 45 35 246
133 279 135 4 1 -18 -18 -50 -42z m837 3 c36 -22 100 -71 140 -109 84 -79 84
-84 -7 -120 l-51 -19 -39 81 c-21 44 -58 107 -81 139 -62 84 -59 86 38 28z
m-737 -7 c-48 -73 -96 -157 -110 -193 -9 -22 -20 -40 -25 -40 -6 0 -32 11 -60
26 -58 29 -58 27 21 102 46 45 168 132 184 132 4 0 0 -12 -10 -27z m881 -10
c86 -43 166 -95 163 -105 -2 -5 -16 -17 -30 -26 -27 -16 -27 -16 -95 49 -37
36 -84 77 -103 93 -31 24 -32 27 -10 20 14 -3 48 -18 75 -31z m-1217 -152 l33
-29 -43 -68 c-43 -68 -108 -196 -108 -214 0 -5 -4 -11 -10 -15 -11 -7 -170 71
-170 84 0 33 222 272 253 271 6 -1 27 -14 45 -29z m1528 -73 c74 -76 151 -175
142 -183 -8 -7 -148 -75 -155 -75 -5 0 -18 27 -31 60 -13 32 -48 101 -79 151
l-55 93 33 27 c23 18 38 25 49 19 8 -5 51 -46 96 -92z m-1396 -8 l59 -30 -15
-42 c-14 -41 -54 -194 -54 -210 0 -5 6 -8 13 -8 8 0 24 39 42 103 38 138 43
149 69 141 12 -4 57 -17 101 -29 46 -12 79 -26 78 -33 -11 -49 -14 -182 -5
-182 10 0 16 27 28 133 l6 57 67 -5 c36 -3 85 -8 108 -11 l42 -5 3 -82 c3 -69
6 -82 21 -85 15 -3 17 6 17 82 l0 85 33 5 c17 3 68 8 113 11 l81 6 11 -70 c7
-38 12 -81 12 -95 0 -17 6 -26 15 -26 11 0 14 7 11 23 -3 12 -8 57 -11 99 l-7
77 44 11 c24 6 56 15 72 20 16 6 35 10 41 10 13 0 61 -137 72 -203 3 -24 11
-37 21 -37 19 0 12 51 -24 169 -14 45 -24 84 -22 86 3 3 139 65 143 65 17 0
155 -252 155 -282 0 -8 -12 -19 -27 -25 -26 -10 -24 -11 26 -12 42 -1 70 7
139 39 47 22 86 39 87 38 12 -14 53 -107 72 -163 24 -72 53 -215 53 -266 l0
-29 -119 0 -118 0 -7 68 c-14 138 -18 162 -32 162 -12 0 -13 -18 -8 -97 3 -54
8 -104 10 -111 2 -8 -5 -16 -16 -19 -24 -6 -27 -33 -3 -33 14 0 15 -11 10 -92
-4 -51 -17 -131 -30 -178 l-22 -85 -41 3 c-26 2 -45 -2 -53 -11 -9 -12 -5 -16
24 -21 20 -4 38 -13 41 -21 9 -24 -109 -240 -150 -274 -10 -8 -30 -3 -80 19
-36 17 -66 32 -66 34 0 2 14 46 30 96 34 103 36 120 16 120 -8 0 -20 -25 -31
-62 -9 -35 -25 -81 -35 -104 l-18 -41 -81 21 c-74 19 -81 23 -77 42 13 49 18
164 9 164 -11 0 -16 -20 -28 -111 -10 -71 -10 -71 -111 -59 -49 5 -97 10 -106
10 -16 0 -18 11 -18 81 0 71 -2 80 -17 77 -15 -3 -18 -16 -21 -79 l-3 -77 -67
-6 c-37 -4 -83 -9 -104 -12 l-36 -5 -11 53 c-6 29 -12 68 -13 87 -2 19 -9 36
-17 39 -11 4 -12 -8 -6 -64 13 -128 22 -114 -84 -141 -52 -13 -97 -20 -101
-16 -9 11 -57 151 -65 191 -6 31 -35 46 -35 18 0 -13 51 -187 64 -216 6 -15
-24 -33 -110 -67 -13 -5 -102 129 -143 217 -23 48 -27 66 -18 72 6 4 -12 8
-42 8 -41 0 -71 -8 -127 -35 -40 -19 -75 -35 -78 -35 -8 0 -53 90 -75 152 -28
76 -49 163 -56 241 l-7 67 131 0 c118 0 131 -2 131 -17 0 -47 22 -199 29 -206
5 -5 8 101 8 237 -1 226 -6 283 -20 224 -3 -13 -9 -65 -13 -115 l-7 -93 -130
0 -130 0 7 73 c12 118 47 241 101 347 l25 49 94 -45 c75 -35 104 -44 147 -44
l54 1 -33 14 -33 14 16 38 c37 88 136 253 151 253 3 0 31 -13 64 -30z m1686
-762 c-11 -98 -45 -226 -84 -310 -19 -43 -38 -78 -41 -78 -3 0 -44 17 -91 37
-47 20 -86 37 -87 38 -1 0 7 32 18 70 17 58 48 248 49 293 0 9 31 12 121 12
l122 0 -7 -62z m-1897 -433 c18 -40 53 -104 77 -140 24 -37 44 -70 44 -74 0
-4 -20 -22 -44 -39 l-43 -31 -69 58 c-69 59 -179 189 -179 213 0 14 138 88
164 88 10 -1 28 -28 50 -75z m1677 40 c69 -31 74 -36 64 -54 -27 -51 -178
-215 -228 -248 -20 -14 -25 -13 -60 13 -20 15 -38 28 -39 29 -2 1 21 39 51 84
30 45 67 111 82 146 16 36 34 65 42 65 7 0 47 -16 88 -35z m-926 -340 c0 -222
1 -216 -54 -195 -15 5 -35 28 -49 57 -50 98 -108 306 -90 323 9 9 58 16 141
18 l52 2 0 -205z m229 188 c21 -5 22 -10 17 -47 -16 -99 -90 -300 -119 -325
-7 -5 -29 -12 -49 -16 l-38 -7 0 207 0 208 83 -7 c45 -3 93 -9 106 -13z m-445
-95 c10 -51 32 -133 48 -182 15 -49 27 -91 25 -93 -9 -8 -54 17 -95 52 -70 61
-194 248 -175 266 7 7 143 46 168 48 6 1 19 -41 29 -91z m653 49 c5 -5 -62
-126 -92 -167 -44 -59 -133 -146 -141 -137 -4 4 0 26 9 49 21 56 34 106 53
198 8 41 17 80 19 87 3 9 23 7 77 -8 40 -11 74 -21 75 -22z m-862 -80 c13 -29
42 -79 64 -112 22 -33 38 -61 36 -64 -8 -8 -143 90 -189 138 -28 28 -48 52
-45 53 21 15 96 45 101 41 5 -2 19 -28 33 -56z m975 37 l55 -26 -65 -60 c-64
-60 -139 -113 -192 -136 -16 -6 -28 -10 -28 -7 0 3 17 27 38 54 20 28 54 84
75 125 21 42 44 76 50 76 7 0 37 -12 67 -26z m-1071 -116 c43 -40 108 -91 146
-113 37 -21 63 -41 56 -43 -26 -9 -204 64 -305 125 l-60 37 39 33 c21 18 40
33 43 33 2 0 39 -33 81 -72z m1210 34 l23 -19 -48 -32 c-66 -44 -197 -105
-264 -124 -34 -10 -48 -11 -37 -4 10 7 46 30 80 52 34 22 91 67 127 101 68 65
69 65 119 26z"/>
<path d="M380 1406 c0 -15 6 -26 13 -26 8 0 21 -8 31 -18 15 -17 16 -48 14
-288 l-3 -269 -27 -13 c-17 -8 -28 -21 -28 -33 0 -18 8 -19 135 -19 129 0 135
1 135 20 0 15 -9 22 -31 27 -41 8 -49 33 -49 157 l0 103 104 5 c116 5 155 21
193 76 40 61 42 156 2 221 -37 61 -88 74 -301 79 l-188 4 0 -26z m308 -27 c50
-17 67 -53 67 -141 0 -67 -3 -80 -24 -102 -26 -28 -76 -46 -128 -46 l-33 0 0
118 c0 141 4 158 39 171 35 13 43 13 79 0z"/>
<path d="M930 1407 c0 -16 9 -26 30 -34 l30 -11 0 -274 c0 -150 -4 -278 -8
-284 -4 -6 -17 -14 -29 -18 -14 -4 -23 -15 -23 -27 0 -18 8 -19 130 -19 123 0
130 1 130 20 0 13 -9 22 -26 26 -35 9 -44 39 -44 147 0 81 3 95 24 121 l23 30
37 -64 c20 -35 56 -97 78 -138 39 -71 40 -75 23 -88 -10 -8 -25 -14 -32 -14
-7 0 -13 -9 -13 -20 0 -19 7 -20 130 -20 124 0 130 1 130 20 0 11 -13 33 -29
48 -29 27 -221 352 -221 373 0 18 122 158 156 180 17 10 47 19 67 19 65 0 67
-8 67 -230 0 -291 20 -359 117 -406 44 -22 63 -26 111 -22 89 6 131 33 167
103 l30 60 5 238 c5 246 7 256 48 257 6 0 12 11 12 25 0 26 0 26 -77 23 -71
-3 -78 -5 -81 -24 -2 -16 4 -23 22 -28 35 -9 39 -38 34 -283 -4 -221 -8 -243
-57 -287 -30 -27 -112 -27 -142 0 -49 44 -53 66 -57 287 -5 244 -1 274 33 283
18 4 25 13 25 30 l0 24 -250 0 -250 0 0 -25 c0 -20 5 -25 25 -25 33 0 50 -32
33 -64 -18 -34 -169 -216 -179 -216 -5 0 -9 51 -9 113 0 122 11 160 48 165 17
3 22 9 20 25 -3 21 -8 22 -130 25 -128 3 -128 3 -128 -21z"/>
<path d="M11628 1545 c-2 -3 -38 -13 -79 -23 -67 -17 -74 -21 -74 -43 0 -19 6
-25 27 -27 14 -2 31 -9 37 -16 8 -9 10 -111 9 -322 l-3 -309 -35 -5 c-29 -4
-35 -9 -35 -30 l0 -25 135 0 c132 0 135 1 138 22 3 17 -3 24 -25 28 -15 4 -34
8 -40 11 -9 2 -13 29 -13 90 0 62 3 85 12 82 7 -3 57 -56 113 -119 l101 -114
87 -3 c72 -2 88 0 93 13 8 21 -13 45 -40 45 -13 0 -43 22 -77 57 -87 91 -159
176 -159 189 0 18 127 133 153 138 12 3 31 7 42 8 13 2 21 12 23 31 l3 28
-118 -3 -118 -3 0 -25 c0 -19 6 -26 28 -30 29 -5 28 -5 -46 -77 -41 -40 -80
-73 -86 -73 -8 0 -11 72 -11 243 0 176 -3 246 -12 255 -13 13 -22 15 -30 7z"/>
<path d="M5582 1505 c-83 -37 -49 -141 44 -133 65 5 92 67 52 120 -19 24 -58
30 -96 13z"/>
<path d="M12672 1505 c-37 -16 -56 -54 -43 -88 14 -36 36 -48 82 -45 70 5 99
65 57 120 -19 24 -58 30 -96 13z"/>
<path d="M2700 1442 c-6 -2 -10 -17 -10 -33 0 -25 4 -29 29 -29 60 0 61 -6 61
-290 0 -284 -1 -290 -61 -290 -26 0 -29 -3 -29 -30 l0 -30 154 0 c146 0 155 1
161 20 8 26 -1 40 -28 40 -13 0 -33 7 -45 16 -20 14 -22 24 -22 103 l0 88 88
0 c96 0 150 18 210 68 62 52 92 141 73 213 -16 57 -51 95 -113 123 -48 22 -71
24 -256 29 -111 3 -207 4 -212 2z m377 -85 c16 -9 38 -28 48 -43 23 -35 24
-119 1 -162 -26 -50 -116 -88 -182 -76 l-34 6 0 137 c0 96 4 141 13 150 16 17
113 9 154 -12z"/>
<path d="M4392 1434 c-25 -18 -10 -48 28 -55 59 -12 60 -18 60 -289 0 -271 -1
-277 -60 -289 -29 -6 -35 -11 -35 -31 l0 -25 155 0 155 0 3 28 c3 24 0 27 -27
27 -50 0 -61 21 -61 119 l0 87 83 0 c74 -1 89 2 150 32 90 44 130 100 135 189
6 88 -25 140 -105 180 -57 27 -63 28 -262 33 -136 3 -209 1 -219 -6z m349 -65
c21 -7 51 -25 66 -41 25 -26 28 -36 28 -99 0 -68 -1 -72 -37 -104 -42 -39
-106 -59 -155 -50 l-33 6 0 137 c0 94 4 142 12 150 15 15 69 15 119 1z"/>
<path d="M7570 1442 c-6 -2 -10 -17 -10 -33 0 -25 4 -29 29 -29 60 0 61 -5 61
-295 0 -251 -1 -265 -19 -275 -11 -5 -32 -10 -46 -10 -23 0 -26 -4 -23 -27 l3
-28 155 0 155 0 0 25 c0 20 -6 25 -35 31 -53 11 -60 29 -60 156 0 133 3 134
86 36 27 -32 89 -102 137 -155 l88 -98 94 0 c73 0 94 3 99 15 9 25 -4 43 -38
49 -25 5 -67 41 -184 160 -84 84 -152 159 -152 166 0 6 48 60 108 120 104 105
109 109 169 121 47 10 64 18 69 33 11 35 -15 41 -147 36 -112 -5 -124 -7 -127
-24 -3 -12 5 -26 19 -37 l23 -17 -42 -49 c-53 -64 -179 -183 -193 -183 -15 0
-8 215 8 231 6 6 26 14 45 18 24 5 34 13 36 29 2 12 -3 24 -11 27 -15 6 -281
12 -297 7z"/>
<path d="M13140 1442 c-6 -2 -10 -17 -10 -33 0 -25 4 -29 28 -29 58 0 60 -12
64 -272 l3 -236 30 -43 c17 -24 53 -57 80 -74 45 -28 54 -30 149 -30 91 0 107
3 159 28 40 20 66 42 85 70 l27 40 6 244 c3 152 9 247 16 254 6 6 29 13 52 16
37 5 41 8 41 34 0 16 -4 29 -10 29 -5 1 -66 1 -135 1 -69 0 -129 0 -134 -1
-12 0 -22 -27 -15 -44 3 -7 24 -16 46 -19 23 -3 45 -11 50 -19 4 -7 7 -118 6
-246 l-3 -234 -37 -33 c-58 -53 -174 -60 -234 -12 -48 38 -54 68 -54 297 0
197 1 211 20 230 11 11 31 20 44 20 13 0 26 7 30 15 6 16 -2 45 -13 45 -60 3
-284 4 -291 2z"/>
<path d="M3352 1428 c-18 -18 -16 -182 3 -198 24 -20 64 -4 71 28 22 99 43
122 111 122 l43 0 0 -274 c0 -302 -1 -306 -61 -306 -26 0 -29 -3 -29 -30 l0
-31 158 3 157 3 0 25 c0 20 -6 25 -35 31 -59 12 -60 16 -60 311 l0 268 44 0
c24 0 52 -3 61 -6 20 -8 40 -48 49 -95 8 -46 28 -63 61 -55 26 7 26 7 23 109
l-3 102 -290 3 c-218 2 -294 -1 -303 -10z"/>
<path d="M10105 1382 c-5 -4 -20 -29 -33 -55 -18 -39 -31 -52 -68 -68 -36 -16
-45 -25 -42 -42 2 -17 12 -23 38 -27 l35 -5 6 -190 c3 -104 6 -191 7 -192 1
-1 16 -18 33 -37 19 -22 43 -38 65 -42 51 -10 121 4 151 30 24 20 25 26 14 40
-11 13 -24 15 -67 10 -84 -10 -84 -11 -84 197 l0 179 54 0 c59 0 80 14 74 52
-3 22 -6 23 -71 20 l-69 -4 3 59 c4 74 -12 100 -46 75z"/>
<path d="M14012 1378 c-5 -7 -13 -23 -16 -36 -10 -30 -55 -82 -72 -82 -21 0
-54 -38 -48 -55 4 -9 19 -15 40 -15 l34 0 0 -173 c0 -159 2 -176 23 -217 38
-77 125 -101 215 -60 35 16 43 24 40 42 -3 22 -7 23 -70 20 -65 -4 -68 -3 -78
23 -5 14 -10 100 -10 191 l0 164 60 0 c54 0 62 3 69 23 5 12 5 30 -1 40 -8 15
-18 17 -72 11 l-62 -6 4 62 c3 46 1 65 -9 71 -20 12 -35 11 -47 -3z"/>
<path d="M5108 1247 c-77 -19 -99 -37 -77 -63 6 -7 23 -14 37 -16 l27 -3 0
-180 0 -180 -27 -3 c-32 -4 -51 -24 -42 -46 5 -14 26 -16 141 -16 l134 0 -3
28 c-2 22 -9 28 -33 30 -16 2 -33 9 -37 15 -4 7 -8 78 -8 159 l0 147 33 24
c44 33 63 38 78 21 9 -11 9 -21 1 -38 -14 -30 1 -46 43 -46 40 0 65 27 72 77
4 32 0 45 -22 71 -36 43 -83 43 -148 2 -26 -16 -50 -30 -52 -30 -2 0 -5 15 -7
32 -4 40 -11 41 -110 15z"/>
<path d="M5565 1246 c-53 -14 -81 -26 -83 -37 -4 -20 15 -36 48 -41 l25 -3 0
-180 0 -180 -27 -3 c-32 -4 -53 -26 -44 -47 4 -12 29 -15 141 -15 l136 0 -3
28 c-2 22 -8 28 -35 30 -18 2 -34 4 -35 5 -1 1 -5 105 -8 232 -4 194 -7 230
-20 231 -8 1 -51 -8 -95 -20z"/>
<path d="M5940 1262 c-8 -3 -42 -13 -75 -22 -53 -14 -60 -18 -60 -40 0 -19 6
-26 25 -28 45 -6 50 -24 50 -191 0 -86 -4 -161 -8 -168 -4 -6 -21 -13 -37 -15
-24 -2 -30 -8 -30 -28 l0 -25 133 -3 c112 -2 133 0 138 13 9 21 -12 43 -44 47
l-27 3 0 165 0 164 34 23 c43 29 99 30 135 2 l26 -20 0 -169 0 -169 -32 -3
c-28 -2 -33 -7 -33 -28 l0 -25 130 0 130 0 0 25 c0 21 -5 26 -33 28 l-32 3 2
167 3 166 34 23 c47 32 104 31 137 -2 24 -24 24 -26 22 -187 l-3 -163 -27 -3
c-32 -4 -51 -24 -42 -46 5 -14 26 -16 141 -16 l134 0 -3 28 c-2 22 -9 28 -33
30 -16 2 -33 9 -37 15 -4 7 -8 83 -8 170 0 126 -3 166 -16 193 -24 51 -68 77
-135 82 -66 5 -117 -10 -159 -45 l-30 -25 -35 31 c-59 52 -163 55 -235 7 l-40
-26 0 23 c0 38 -24 54 -60 39z"/>
<path d="M8928 1247 c-77 -19 -99 -37 -77 -63 6 -7 23 -14 37 -16 l27 -3 0
-180 0 -180 -27 -3 c-32 -4 -51 -24 -42 -46 5 -14 26 -16 141 -16 l134 0 -3
28 c-2 22 -9 28 -33 30 -16 2 -33 9 -37 15 -4 7 -8 78 -8 158 0 138 1 147 23
166 58 53 123 59 168 14 l30 -30 -3 -158 -3 -158 -35 -5 c-29 -4 -35 -9 -35
-30 l0 -25 135 0 c132 0 135 1 138 22 3 17 -3 24 -25 28 -15 4 -33 8 -40 10
-8 3 -12 57 -15 179 -3 190 -7 202 -71 250 -57 42 -195 28 -243 -26 -19 -20
-19 -20 -24 18 -6 47 -11 48 -112 21z"/>
<path d="M10520 1262 c-8 -3 -42 -13 -75 -22 -53 -14 -60 -18 -60 -40 0 -19 6
-26 25 -28 45 -6 50 -24 50 -191 0 -86 -4 -161 -8 -168 -4 -6 -21 -13 -37 -15
-24 -2 -30 -8 -30 -28 l0 -25 135 0 c132 0 135 1 138 22 3 17 -3 24 -25 28
-15 4 -34 8 -40 11 -10 2 -13 44 -13 161 l0 158 35 24 c56 38 70 34 70 -19 0
-45 0 -45 37 -48 52 -4 78 23 78 83 0 35 -6 52 -25 70 -33 34 -76 32 -142 -5
l-53 -30 0 23 c0 38 -24 54 -60 39z"/>
<path d="M12655 1246 c-73 -19 -80 -23 -80 -46 0 -21 6 -26 35 -30 l35 -5 0
-180 0 -180 -27 -3 c-32 -4 -53 -26 -44 -47 5 -13 26 -15 138 -13 l133 3 0 25
c0 21 -5 26 -32 28 -18 2 -34 4 -35 5 -1 1 -5 105 -8 232 -4 194 -7 230 -20
231 -8 1 -51 -8 -95 -20z"/>
<path d="M14977 1264 c-3 -3 -36 -13 -74 -22 -61 -15 -68 -19 -68 -42 0 -21 5
-26 32 -28 43 -4 44 -12 41 -207 l-3 -160 -35 -5 c-29 -4 -35 -9 -35 -30 l0
-25 135 0 135 0 0 25 c0 21 -6 26 -35 30 l-35 5 -3 145 c-1 80 0 155 3 168 14
57 122 81 172 38 l28 -24 0 -164 0 -163 -27 -3 c-32 -4 -53 -26 -44 -47 4 -12
29 -15 136 -15 l131 0 -3 27 c-2 22 -9 29 -33 33 l-30 5 -3 145 c-1 80 0 155
3 168 14 57 122 81 172 38 28 -24 28 -25 31 -163 4 -158 -3 -190 -45 -195 -22
-2 -29 -9 -31 -30 l-3 -28 134 0 c115 0 136 2 141 16 9 22 -10 42 -42 46 l-27
3 -5 170 c-5 145 -9 176 -25 204 -36 61 -67 76 -155 76 -73 0 -82 -2 -125 -33
l-47 -33 -25 25 c-55 55 -172 61 -240 12 l-38 -26 -3 22 c-6 38 -36 61 -55 42z"/>
<path d="M6895 1247 c-57 -23 -73 -37 -85 -71 -22 -68 32 -138 95 -122 33 8
42 32 21 55 -36 39 -3 101 54 101 70 0 100 -36 100 -120 0 -48 -1 -49 -32 -54
-188 -26 -229 -40 -259 -90 -29 -47 -26 -126 6 -164 35 -42 74 -55 149 -50 47
3 74 11 103 30 l39 26 32 -29 c26 -24 41 -29 81 -29 51 0 78 18 67 45 -3 8
-14 15 -24 15 -11 0 -24 6 -30 13 -6 7 -12 87 -14 184 -3 191 -8 207 -78 247
-41 24 -179 32 -225 13z m185 -313 c0 -40 -5 -51 -39 -85 -32 -32 -46 -39 -78
-39 -21 0 -44 5 -51 12 -18 18 -15 83 6 107 20 25 83 50 130 51 32 0 32 -1 32
-46z"/>
<path d="M8425 1237 c-100 -48 -147 -119 -153 -233 -3 -57 0 -81 18 -122 24
-56 83 -116 136 -138 53 -22 151 -18 210 10 164 76 205 304 77 432 -49 50 -90
67 -168 71 -58 3 -78 0 -120 -20z m174 -63 c78 -65 81 -276 6 -351 -28 -28
-40 -33 -80 -33 -89 0 -131 77 -123 225 8 126 48 184 130 185 25 0 46 -8 67
-26z"/>
<path d="M9638 1250 c-91 -27 -140 -100 -119 -178 16 -59 64 -96 165 -126 120
-37 154 -87 94 -138 -23 -20 -107 -25 -138 -8 -34 18 -44 48 -24 77 16 25 16
27 -2 40 -40 29 -112 2 -115 -44 -6 -96 57 -142 194 -143 58 0 88 5 116 20
105 53 133 171 56 238 -18 17 -64 40 -102 52 -37 13 -85 31 -105 42 -33 16
-38 23 -38 53 0 26 6 39 26 51 48 32 144 10 144 -32 0 -7 -8 -20 -17 -29 -38
-39 47 -76 88 -39 28 25 35 79 14 110 -34 53 -153 80 -237 54z"/>
<path d="M10905 1236 c-73 -19 -80 -23 -80 -46 0 -19 6 -26 25 -28 47 -7 50
-15 50 -167 0 -128 2 -146 23 -185 29 -56 74 -80 150 -80 56 0 103 16 138 47
15 12 17 10 22 -17 6 -30 7 -30 69 -29 35 0 83 4 108 7 39 6 45 10 45 32 0 21
-6 26 -35 30 -62 10 -60 4 -60 224 0 243 -1 247 -76 223 -27 -8 -62 -18 -79
-22 -16 -4 -35 -11 -42 -17 -19 -16 3 -48 33 -48 35 0 44 -32 44 -163 0 -86
-4 -118 -16 -135 -38 -55 -137 -70 -179 -27 -25 24 -25 26 -25 213 0 177 -6
216 -29 211 -4 -1 -42 -11 -86 -23z"/>
<path d="M12223 1244 c-23 -9 -56 -31 -73 -50 -26 -30 -30 -43 -30 -91 0 -52
3 -59 38 -92 27 -26 62 -44 126 -64 48 -16 96 -37 107 -48 49 -49 2 -109 -85
-109 -81 0 -116 38 -84 89 17 27 -5 51 -48 51 -47 0 -74 -29 -74 -81 0 -78 70
-119 204 -119 121 0 194 54 204 150 8 88 -28 124 -182 176 -38 13 -78 31 -88
41 -25 23 -23 68 4 87 25 18 100 21 129 6 23 -13 25 -47 4 -71 -14 -15 -14
-18 0 -33 41 -40 115 1 115 65 0 37 -43 86 -88 99 -51 14 -129 11 -179 -6z"/>
<path d="M14429 1251 c-47 -15 -69 -31 -85 -63 -42 -81 53 -182 111 -118 17
19 17 21 2 38 -62 68 48 140 119 79 23 -20 28 -34 32 -84 4 -56 3 -60 -19 -66
-13 -4 -40 -7 -59 -7 -56 0 -151 -29 -187 -56 -63 -48 -65 -150 -3 -209 51
-49 181 -48 241 2 l31 27 17 -21 c24 -30 54 -43 104 -43 47 0 74 18 64 44 -3
8 -16 16 -29 18 -40 5 -48 41 -48 208 0 174 -9 203 -72 236 -37 20 -176 29
-219 15z m181 -306 c0 -87 -80 -157 -151 -133 -30 10 -41 37 -32 79 10 51 70
86 151 88 30 1 32 -1 32 -34z"/>
<path d="M15925 1248 c-16 -6 -42 -22 -57 -36 -74 -69 7 -207 87 -148 18 13
17 25 -6 57 -17 23 -3 64 26 77 42 19 83 14 110 -13 21 -20 25 -34 25 -84 l0
-60 -32 -5 c-18 -3 -58 -8 -88 -11 -73 -8 -156 -48 -175 -85 -19 -38 -19 -103
0 -141 25 -46 70 -69 140 -69 59 0 135 25 150 49 4 8 18 2 41 -19 28 -24 43
-30 82 -30 26 0 53 4 60 9 20 12 11 45 -13 49 -11 2 -24 8 -30 13 -6 6 -12 88
-15 184 -6 198 -11 212 -90 253 -49 24 -158 30 -215 10z m185 -308 c0 -23 -7
-54 -15 -70 -26 -51 -114 -80 -150 -50 -21 17 -19 83 3 109 20 25 83 50 130
51 31 0 32 -1 32 -40z"/>
<path d="M3930 860 c-24 -24 -26 -77 -4 -108 12 -17 25 -22 58 -22 59 0 81 27
77 93 -2 29 -38 57 -76 57 -22 0 -43 -8 -55 -20z"/>
</g>
</svg>
